<svg width="100" height="100" viewBox="0 0 100 100" fill="none" xmlns="http://www.w3.org/2000/svg">
<g clip-path="url(#clip0_1080_5688)">
<path d="M90.3803 25.1671C89.3112 25.0073 88.3347 24.4701 87.6273 23.6528C86.9199 22.8355 86.5283 21.792 86.5234 20.7111V18.9425H87.0117C87.8902 18.9432 88.7486 18.6804 89.4762 18.1881C90.2037 17.6958 90.7669 16.9966 91.0929 16.1809C91.4188 15.3651 91.4927 14.4704 91.3048 13.6123C91.117 12.7541 90.6761 11.9721 90.0391 11.3671V4.39175C90.0377 3.22666 89.5743 2.10968 88.7505 1.28584C87.9266 0.461992 86.8096 -0.0014331 85.6445 -0.0027771H67.0898C65.9248 -0.0014331 64.8078 0.461992 63.9839 1.28584C63.1601 2.10968 62.6967 3.22666 62.6953 4.39175V11.3671C62.0584 11.9721 61.6176 12.7542 61.4298 13.6123C61.242 14.4704 61.3158 15.3651 61.6418 16.1808C61.9678 16.9964 62.5309 17.6956 63.2584 18.188C63.9858 18.6803 64.8442 18.9431 65.7227 18.9425H66.2109V20.7111C66.206 21.792 65.8144 22.8355 65.107 23.6527C64.3996 24.47 63.4231 25.0072 62.3541 25.1671C60.3234 25.4633 58.4138 26.3145 56.8359 27.6267V21.3839C56.8331 18.9243 55.8548 16.5662 54.1156 14.827C52.3763 13.0877 50.0182 12.1094 47.5586 12.1066H9.27734C6.8177 12.1094 4.45959 13.0877 2.72035 14.827C0.981119 16.5662 0.00279147 18.9243 0 21.3839L0 90.7199C0.00279147 93.1795 0.981119 95.5376 2.72035 97.2769C4.45959 99.0161 6.8177 99.9944 9.27734 99.9972H47.5586C49.0842 99.9936 50.5855 99.6152 51.9307 98.8954C53.2758 98.1756 54.4235 97.1364 55.2729 95.8691C56.3245 97.1592 57.6501 98.1989 59.1535 98.913C60.6569 99.627 62.3005 99.9974 63.9648 99.9972H88.7473C88.8496 100 88.9516 100.002 89.0533 100.002C94.923 100.002 99.8014 95.0527 99.9992 88.8134C99.9998 88.7978 100 88.7822 100 88.7667V36.2816C99.9878 33.5855 99.0112 30.9829 97.2468 28.9443C95.4824 26.9057 93.0467 25.5659 90.3803 25.1671ZM53.9062 31.3201C53.1366 32.8608 52.7354 34.5593 52.7344 36.2816V88.7667C52.7339 90.1802 53.0017 91.5809 53.5236 92.8945C53.0748 94.1162 52.2625 95.171 51.196 95.9171C50.1295 96.6632 48.8601 97.0647 47.5586 97.0675H9.27734C7.59443 97.0656 5.98099 96.3962 4.79099 95.2062C3.60098 94.0162 2.9316 92.4028 2.92969 90.7199V21.3839C2.9316 19.701 3.60098 18.0876 4.79099 16.8976C5.98099 15.7076 7.59443 15.0382 9.27734 15.0363H47.5586C49.2415 15.0382 50.8549 15.7076 52.045 16.8976C53.235 18.0876 53.9043 19.701 53.9062 21.3839V31.3201ZM84.1797 2.92691H85.6445C86.0329 2.92732 86.4053 3.08179 86.6799 3.35641C86.9545 3.63103 87.109 4.00338 87.1094 4.39175V10.156C87.0768 10.1552 87.0445 10.1535 87.0117 10.1535H84.1797V2.92691ZM77.832 2.92691H81.25V10.1535H77.832V2.92691ZM71.4844 2.92691H74.9023V10.1535H71.4844V2.92691ZM65.625 4.39175C65.6254 4.00338 65.7799 3.63103 66.0545 3.35641C66.3291 3.08179 66.7015 2.92732 67.0898 2.92691H68.5547V10.1535H65.7227C65.6898 10.1535 65.6576 10.1554 65.625 10.156V4.39175ZM65.7227 16.0128C65.3342 16.0128 64.9616 15.8585 64.6869 15.5838C64.4121 15.3091 64.2578 14.9365 64.2578 14.548C64.2578 14.1595 64.4121 13.7869 64.6869 13.5122C64.9616 13.2375 65.3342 13.0832 65.7227 13.0832H87.0117C87.4002 13.0832 87.7728 13.2375 88.0475 13.5122C88.3222 13.7869 88.4766 14.1595 88.4766 14.548C88.4766 14.9365 88.3222 15.3091 88.0475 15.5838C87.7728 15.8585 87.4002 16.0128 87.0117 16.0128H65.7227ZM97.0703 88.7427C96.9117 93.3888 93.3428 97.0724 89.0527 97.072C88.974 97.072 88.8945 97.0708 88.8156 97.0683C88.8003 97.0678 88.7849 97.0675 88.7695 97.0675H63.9648C61.7641 97.065 59.6542 96.1897 58.098 94.6335C56.5419 93.0774 55.6665 90.9675 55.6641 88.7667V79.88H97.0703V88.7427ZM97.0703 76.9503H55.6641V44.5285H97.0703V76.9503ZM97.0703 41.5988H55.6641V36.2816C55.6731 34.2889 56.3949 32.3652 57.699 30.8585C59.0031 29.3517 60.8034 28.3615 62.7742 28.0667C64.5388 27.8027 66.1507 26.916 67.3184 25.5669C68.4861 24.2178 69.1325 22.4953 69.1406 20.7111V18.9425H83.5938V20.7111C83.6019 22.4954 84.2483 24.2178 85.416 25.5669C86.5837 26.9161 88.1957 27.8028 89.9604 28.0667C91.9311 28.3615 93.7313 29.3518 95.0354 30.8585C96.3395 32.3653 97.0613 34.2889 97.0703 36.2816V41.5988ZM16.9922 20.9933C15.5436 20.9933 14.1275 21.4229 12.9231 22.2277C11.7186 23.0325 10.7798 24.1763 10.2255 25.5147C9.67114 26.853 9.52609 28.3257 9.8087 29.7464C10.0913 31.1672 10.7889 32.4722 11.8132 33.4965C12.8375 34.5208 14.1425 35.2184 15.5633 35.501C16.9841 35.7836 18.4567 35.6386 19.795 35.0842C21.1334 34.5299 22.2773 33.5911 23.0821 32.3867C23.8868 31.1822 24.3164 29.7661 24.3164 28.3175C24.3142 26.3757 23.5419 24.514 22.1688 23.1409C20.7957 21.7678 18.934 20.9955 16.9922 20.9933ZM16.9922 32.7121C16.2499 32.7122 15.5196 32.5243 14.8696 32.1658C14.2195 31.8073 13.6709 31.2899 13.275 30.662C12.879 30.0341 12.6486 29.3161 12.6053 28.575C12.5619 27.8339 12.7071 27.094 13.0271 26.4242L18.8855 32.2828C18.2946 32.5661 17.6475 32.7128 16.9922 32.7121ZM20.9572 30.2111L15.0988 24.3525C15.9188 23.9607 16.84 23.8328 17.7356 23.9864C18.6313 24.14 19.4573 24.5675 20.0998 25.2101C20.7424 25.8527 21.1698 26.6787 21.3234 27.5743C21.477 28.4699 21.349 29.3912 20.9572 30.2111ZM16.9922 39.3527C15.5436 39.3527 14.1275 39.7822 12.9231 40.587C11.7186 41.3918 10.7798 42.5357 10.2255 43.8741C9.67114 45.2124 9.52609 46.685 9.8087 48.1058C10.0913 49.5266 10.7889 50.8316 11.8132 51.8559C12.8375 52.8802 14.1425 53.5778 15.5633 53.8604C16.9841 54.143 18.4567 53.998 19.795 53.4436C21.1334 52.8892 22.2773 51.9505 23.0821 50.746C23.8868 49.5416 24.3164 48.1255 24.3164 46.6769C24.3142 44.7351 23.5419 42.8734 22.1688 41.5003C20.7957 40.1272 18.934 39.3549 16.9922 39.3527ZM16.9922 51.0714C16.2499 51.0716 15.5196 50.8836 14.8696 50.5251C14.2195 50.1666 13.6709 49.6493 13.275 49.0214C12.879 48.3934 12.6486 47.6754 12.6053 46.9344C12.5619 46.1933 12.7071 45.4533 13.0271 44.7835L18.8855 50.6421C18.2946 50.9255 17.6475 51.0722 16.9922 51.0714ZM20.9572 48.5705L15.0988 42.7119C15.9188 42.3201 16.84 42.1922 17.7356 42.3458C18.6313 42.4994 19.4573 42.9269 20.0998 43.5695C20.7424 44.212 21.1698 45.038 21.3234 45.9337C21.477 46.8293 21.349 47.7505 20.9572 48.5705ZM16.9922 57.7121C15.5436 57.7121 14.1275 58.1416 12.9231 58.9464C11.7186 59.7512 10.7798 60.8951 10.2255 62.2334C9.67114 63.5717 9.52609 65.0444 9.8087 66.4652C10.0913 67.8859 10.7889 69.191 11.8132 70.2153C12.8375 71.2396 14.1425 71.9372 15.5633 72.2198C16.9841 72.5024 18.4567 72.3573 19.795 71.803C21.1334 71.2486 22.2773 70.3099 23.0821 69.1054C23.8868 67.9009 24.3164 66.4849 24.3164 65.0363C24.3142 63.0944 23.5419 61.2328 22.1688 59.8597C20.7957 58.4866 18.934 57.7142 16.9922 57.7121ZM16.9922 69.4308C16.2499 69.431 15.5196 69.243 14.8696 68.8845C14.2195 68.526 13.6709 68.0087 13.275 67.3807C12.879 66.7528 12.6486 66.0348 12.6053 65.2937C12.5619 64.5527 12.7071 63.8127 13.0271 63.1429L18.8855 69.0015C18.2946 69.2848 17.6475 69.4316 16.9922 69.4308ZM20.9572 66.9298L15.0988 61.0712C15.9188 60.6795 16.84 60.5516 17.7356 60.7051C18.6313 60.8587 19.4573 61.2863 20.0998 61.9288C20.7424 62.5714 21.1698 63.3974 21.3234 64.293C21.477 65.1887 21.349 66.1099 20.9572 66.9298ZM16.9922 76.0714C15.5436 76.0714 14.1275 76.501 12.9231 77.3058C11.7186 78.1106 10.7798 79.2545 10.2255 80.5928C9.67114 81.9311 9.52609 83.4038 9.8087 84.8245C10.0913 86.2453 10.7889 87.5503 11.8132 88.5747C12.8375 89.599 14.1425 90.2965 15.5633 90.5791C16.9841 90.8617 18.4567 90.7167 19.795 90.1623C21.1334 89.608 22.2773 88.6692 23.0821 87.4648C23.8868 86.2603 24.3164 84.8442 24.3164 83.3957C24.3142 81.4538 23.5419 79.5921 22.1688 78.219C20.7957 76.846 18.934 76.0736 16.9922 76.0714ZM16.9922 87.7902C16.2499 87.7903 15.5196 87.6024 14.8696 87.2439C14.2195 86.8854 13.6709 86.368 13.275 85.7401C12.879 85.1122 12.6486 84.3942 12.6053 83.6531C12.5619 82.912 12.7071 82.1721 13.0271 81.5023L18.8855 87.3609C18.2946 87.6442 17.6475 87.7909 16.9922 87.7902ZM20.9572 85.2892L15.0988 79.4306C15.9188 79.0388 16.84 78.9109 17.7356 79.0645C18.6313 79.2181 19.4573 79.6456 20.0998 80.2882C20.7424 80.9308 21.1698 81.7568 21.3234 82.6524C21.477 83.5481 21.349 84.4693 20.9572 85.2892ZM39.8438 20.9933C38.3952 20.9933 36.9791 21.4229 35.7746 22.2277C34.5702 23.0325 33.6314 24.1763 33.0771 25.5147C32.5227 26.853 32.3777 28.3257 32.6603 29.7464C32.9429 31.1672 33.6404 32.4722 34.6647 33.4965C35.6891 34.5208 36.9941 35.2184 38.4149 35.501C39.8356 35.7836 41.3083 35.6386 42.6466 35.0842C43.9849 34.5299 45.1288 33.5911 45.9336 32.3867C46.7384 31.1822 47.168 29.7661 47.168 28.3175C47.1658 26.3757 46.3934 24.514 45.0204 23.1409C43.6473 21.7678 41.7856 20.9955 39.8438 20.9933ZM39.8438 32.7121C39.1014 32.7122 38.3711 32.5243 37.7211 32.1658C37.0711 31.8073 36.5225 31.2899 36.1265 30.662C35.7306 30.0341 35.5002 29.3161 35.4568 28.575C35.4135 27.8339 35.5586 27.094 35.8787 26.4242L41.7371 32.2828C41.1462 32.5661 40.4991 32.7128 39.8438 32.7121ZM43.8088 30.2111L37.9504 24.3525C38.7703 23.9607 39.6915 23.8328 40.5872 23.9864C41.4828 24.14 42.3088 24.5675 42.9514 25.2101C43.5939 25.8527 44.0214 26.6787 44.175 27.5743C44.3285 28.4699 44.2006 29.3912 43.8088 30.2111ZM39.8438 39.3527C38.3952 39.3527 36.9791 39.7822 35.7746 40.587C34.5702 41.3918 33.6314 42.5357 33.0771 43.8741C32.5227 45.2124 32.3777 46.685 32.6603 48.1058C32.9429 49.5266 33.6404 50.8316 34.6647 51.8559C35.6891 52.8802 36.9941 53.5778 38.4149 53.8604C39.8356 54.143 41.3083 53.998 42.6466 53.4436C43.9849 52.8892 45.1288 51.9505 45.9336 50.746C46.7384 49.5416 47.168 48.1255 47.168 46.6769C47.1658 44.7351 46.3934 42.8734 45.0204 41.5003C43.6473 40.1272 41.7856 39.3549 39.8438 39.3527ZM39.8438 51.0714C39.1014 51.0716 38.3711 50.8836 37.7211 50.5251C37.0711 50.1666 36.5225 49.6493 36.1265 49.0214C35.7306 48.3934 35.5002 47.6754 35.4568 46.9344C35.4135 46.1933 35.5586 45.4533 35.8787 44.7835L41.7371 50.6421C41.1462 50.9255 40.4991 51.0722 39.8438 51.0714ZM43.8088 48.5705L37.9504 42.7119C38.7703 42.3201 39.6915 42.1922 40.5872 42.3458C41.4828 42.4994 42.3088 42.9269 42.9514 43.5695C43.5939 44.212 44.0214 45.038 44.175 45.9337C44.3285 46.8293 44.2006 47.7505 43.8088 48.5705ZM39.8438 57.7121C38.3952 57.7121 36.9791 58.1416 35.7746 58.9464C34.5702 59.7512 33.6314 60.8951 33.0771 62.2334C32.5227 63.5717 32.3777 65.0444 32.6603 66.4652C32.9429 67.8859 33.6404 69.191 34.6647 70.2153C35.6891 71.2396 36.9941 71.9372 38.4149 72.2198C39.8356 72.5024 41.3083 72.3573 42.6466 71.803C43.9849 71.2486 45.1288 70.3099 45.9336 69.1054C46.7384 67.9009 47.168 66.4849 47.168 65.0363C47.1658 63.0944 46.3934 61.2328 45.0204 59.8597C43.6473 58.4866 41.7856 57.7142 39.8438 57.7121ZM39.8438 69.4308C39.1014 69.431 38.3711 69.243 37.7211 68.8845C37.0711 68.526 36.5225 68.0087 36.1265 67.3807C35.7306 66.7528 35.5002 66.0348 35.4568 65.2937C35.4135 64.5527 35.5586 63.8127 35.8787 63.1429L41.7371 69.0015C41.1462 69.2848 40.4991 69.4316 39.8438 69.4308ZM43.8088 66.9298L37.9504 61.0712C38.7703 60.6795 39.6915 60.5516 40.5872 60.7051C41.4828 60.8587 42.3088 61.2863 42.9514 61.9288C43.5939 62.5714 44.0214 63.3974 44.175 64.293C44.3285 65.1887 44.2006 66.1099 43.8088 66.9298ZM39.8438 76.0714C38.3952 76.0714 36.9791 76.501 35.7746 77.3058C34.5702 78.1106 33.6314 79.2545 33.0771 80.5928C32.5227 81.9311 32.3777 83.4038 32.6603 84.8245C32.9429 86.2453 33.6404 87.5503 34.6647 88.5747C35.6891 89.599 36.9941 90.2965 38.4149 90.5791C39.8356 90.8617 41.3083 90.7167 42.6466 90.1623C43.9849 89.608 45.1288 88.6692 45.9336 87.4648C46.7384 86.2603 47.168 84.8442 47.168 83.3957C47.1658 81.4538 46.3934 79.5921 45.0204 78.219C43.6473 76.846 41.7856 76.0736 39.8438 76.0714ZM39.8438 87.7902C39.1014 87.7903 38.3711 87.6024 37.7211 87.2439C37.0711 86.8854 36.5225 86.368 36.1265 85.7401C35.7306 85.1122 35.5002 84.3942 35.4568 83.6531C35.4135 82.912 35.5586 82.1721 35.8787 81.5023L41.7371 87.3609C41.1462 87.6442 40.4991 87.7909 39.8438 87.7902ZM43.8088 85.2892L37.9504 79.4306C38.7703 79.0388 39.6915 78.9109 40.5872 79.0645C41.4828 79.2181 42.3088 79.6456 42.9514 80.2882C43.5939 80.9308 44.0214 81.7568 44.175 82.6524C44.3285 83.5481 44.2006 84.4693 43.8088 85.2892Z" fill="#ADC6FF"/>
</g>
<defs>
<clipPath id="clip0_1080_5688">
<rect width="100" height="100" fill="white"/>
</clipPath>
</defs>
</svg>
